<?xml version="1.0" encoding="UTF-8"?>
<svg xmlns="http://www.w3.org/2000/svg" xmlns:xlink="http://www.w3.org/1999/xlink" width="375pt" height="374.999991pt" viewBox="0 0 375 374.999991" version="1.2">
<defs>
<clipPath id="clip1">
  <path d="M 161 264 L 214 264 L 214 286.578125 L 161 286.578125 Z M 161 264 "/>
</clipPath>
<clipPath id="clip2">
  <path d="M 129.40625 88.578125 L 245.65625 88.578125 L 245.65625 273 L 129.40625 273 Z M 129.40625 88.578125 "/>
</clipPath>
</defs>
<g id="surface1">
<path style=" stroke:none;fill-rule:nonzero;fill:rgb(36.859131%,9.01947%,92.158508%);fill-opacity:1;" d="M 187.351562 374.699219 C 137.332031 374.699219 90.230469 355.230469 54.886719 319.8125 C 19.46875 284.46875 0 237.371094 0 187.351562 C 0 137.332031 19.46875 90.230469 54.886719 54.886719 C 90.230469 19.46875 137.332031 0 187.351562 0 C 237.371094 0 284.46875 19.46875 319.8125 54.886719 C 355.230469 90.304688 374.699219 137.332031 374.699219 187.351562 C 374.699219 237.371094 355.230469 284.46875 319.8125 319.8125 C 284.46875 355.230469 237.371094 374.699219 187.351562 374.699219 Z M 187.351562 11.230469 C 140.324219 11.230469 96.070312 29.578125 62.824219 62.824219 C 29.578125 96.070312 11.230469 140.324219 11.230469 187.351562 C 11.230469 234.375 29.578125 278.628906 62.824219 311.875 C 96.070312 345.121094 140.324219 363.46875 187.351562 363.46875 C 234.375 363.46875 278.628906 345.121094 311.875 311.875 C 345.121094 278.628906 363.46875 234.375 363.46875 187.351562 C 363.46875 140.324219 345.121094 96.070312 311.875 62.824219 C 278.628906 29.578125 234.375 11.230469 187.351562 11.230469 Z M 187.351562 11.230469 "/>
<g clip-path="url(#clip1)" clip-rule="nonzero">
<path style=" stroke:none;fill-rule:nonzero;fill:rgb(100%,100%,100%);fill-opacity:1;" d="M 213.820312 275.203125 C 213.820312 281.339844 202.183594 286.308594 187.824219 286.308594 C 173.476562 286.308594 161.839844 281.339844 161.839844 275.203125 C 161.839844 269.078125 173.476562 264.097656 187.824219 264.097656 C 202.183594 264.097656 213.820312 269.078125 213.820312 275.203125 "/>
</g>
<path style=" stroke:none;fill-rule:nonzero;fill:rgb(36.859131%,9.01947%,92.158508%);fill-opacity:1;" d="M 213.285156 272.523438 C 213.285156 278.648438 201.765625 283.617188 187.5625 283.617188 C 173.359375 283.617188 161.839844 278.648438 161.839844 272.523438 C 161.839844 266.382812 173.359375 261.414062 187.5625 261.414062 C 201.765625 261.414062 213.285156 266.382812 213.285156 272.523438 "/>
<g clip-path="url(#clip2)" clip-rule="nonzero">
<path style=" stroke:none;fill-rule:nonzero;fill:rgb(36.859131%,9.01947%,92.158508%);fill-opacity:1;" d="M 188.554688 88.847656 C 188.210938 88.847656 187.875 88.871094 187.53125 88.878906 C 187.1875 88.871094 186.851562 88.847656 186.507812 88.847656 C 154.964844 88.847656 129.386719 115.527344 129.386719 148.429688 C 129.386719 154.03125 131.554688 167.015625 134.824219 172.402344 L 187.53125 272.523438 L 240.242188 172.402344 C 243.507812 167.015625 245.675781 154.03125 245.675781 148.429688 C 245.675781 115.527344 220.109375 88.847656 188.554688 88.847656 "/>
</g>
<path style=" stroke:none;fill-rule:nonzero;fill:rgb(100%,100%,100%);fill-opacity:1;" d="M 219.089844 141.789062 C 219.089844 159.21875 204.957031 173.34375 187.53125 173.34375 C 170.105469 173.34375 155.976562 159.21875 155.976562 141.789062 C 155.976562 124.359375 170.105469 110.226562 187.53125 110.226562 C 204.957031 110.226562 219.089844 124.359375 219.089844 141.789062 "/>
</g>
</svg>
