<?xml version="1.0" encoding="UTF-8"?>
<svg xmlns="http://www.w3.org/2000/svg" xmlns:xlink="http://www.w3.org/1999/xlink" width="375pt" height="374.999991pt" viewBox="0 0 375 374.999991" version="1.2">
<defs>
<clipPath id="clip1">
  <path d="M 37.5 209 L 337.5 209 L 337.5 231.9375 L 37.5 231.9375 Z M 37.5 209 "/>
</clipPath>
<clipPath id="clip2">
  <path d="M 152 143.4375 L 312 143.4375 L 312 224 L 152 224 Z M 152 143.4375 "/>
</clipPath>
</defs>
<g id="surface1">
<path style=" stroke:none;fill-rule:nonzero;fill:rgb(36.859131%,9.01947%,92.158508%);fill-opacity:1;" d="M 187.351562 374.699219 C 137.332031 374.699219 90.230469 355.230469 54.886719 319.8125 C 19.46875 284.46875 0 237.371094 0 187.351562 C 0 137.332031 19.46875 90.230469 54.886719 54.886719 C 90.230469 19.46875 137.332031 0 187.351562 0 C 237.371094 0 284.46875 19.46875 319.8125 54.886719 C 355.230469 90.304688 374.699219 137.332031 374.699219 187.351562 C 374.699219 237.371094 355.230469 284.46875 319.8125 319.8125 C 284.46875 355.230469 237.371094 374.699219 187.351562 374.699219 Z M 187.351562 11.230469 C 140.324219 11.230469 96.070312 29.578125 62.824219 62.824219 C 29.578125 96.070312 11.230469 140.324219 11.230469 187.351562 C 11.230469 234.375 29.578125 278.628906 62.824219 311.875 C 96.070312 345.121094 140.324219 363.46875 187.351562 363.46875 C 234.375 363.46875 278.628906 345.121094 311.875 311.875 C 345.121094 278.628906 363.46875 234.375 363.46875 187.351562 C 363.46875 140.324219 345.121094 96.070312 311.875 62.824219 C 278.628906 29.578125 234.375 11.230469 187.351562 11.230469 Z M 187.351562 11.230469 "/>
<g clip-path="url(#clip1)" clip-rule="nonzero">
<path style=" stroke:none;fill-rule:nonzero;fill:rgb(36.859131%,9.01947%,92.158508%);fill-opacity:1;" d="M 336.027344 227.597656 C 327.914062 227.597656 321.910156 215.761719 321.851562 215.644531 L 319.273438 210.445312 L 318.0625 216.128906 C 316.269531 224.53125 311.355469 227.160156 307.441406 227.859375 C 296.652344 226.558594 291.851562 215.847656 291.804688 215.742188 L 289.289062 209.921875 L 287.96875 216.125 C 285.796875 226.296875 282.949219 227.351562 276.015625 227.597656 L 275.921875 227.597656 C 266.46875 227.597656 261.988281 215.953125 261.949219 215.84375 L 259.523438 209.308594 L 258.070312 216.125 C 256.027344 225.714844 254.628906 227.167969 247.382812 227.246094 L 247.316406 227.246094 C 239.027344 227.246094 234.679688 215.953125 234.636719 215.839844 L 232.214844 209.328125 L 230.761719 216.128906 C 228.570312 226.417969 225.738281 227.449219 218.808594 227.597656 L 218.738281 227.597656 C 212.5625 227.597656 206.460938 218.929688 204.621094 215.574219 L 202.003906 210.789062 L 200.867188 216.128906 C 198.753906 226.054688 197.355469 227.402344 189.710938 227.394531 C 180.722656 227.394531 176.488281 215.980469 176.449219 215.867188 L 174.050781 209.15625 L 172.566406 216.128906 C 170.308594 226.707031 167.804688 227.597656 160.632812 227.597656 C 152.519531 227.597656 146.519531 215.761719 146.460938 215.644531 L 145.191406 213.082031 L 143.785156 209.179688 L 142.304688 216.128906 C 141.886719 218.085938 141.457031 219.695312 140.992188 221.039062 C 139.367188 224.265625 136.925781 226.417969 133.738281 227.4375 C 132.796875 227.546875 131.695312 227.597656 130.375 227.597656 C 122.257812 227.597656 116.257812 215.761719 116.203125 215.644531 L 113.621094 210.445312 L 112.410156 216.125 C 110.621094 224.53125 105.703125 227.160156 101.785156 227.859375 C 91 226.558594 86.199219 215.847656 86.152344 215.742188 L 83.636719 209.921875 L 82.316406 216.125 C 80.148438 226.296875 77.300781 227.351562 70.363281 227.597656 L 70.265625 227.597656 C 60.816406 227.597656 56.339844 215.953125 56.296875 215.84375 L 53.871094 209.308594 L 52.421875 216.125 C 50.378906 225.714844 48.976562 227.167969 41.730469 227.246094 L 41.664062 227.246094 C 40.15625 227.246094 38.78125 226.867188 37.535156 226.253906 L 37.535156 230.632812 C 38.839844 231.066406 40.246094 231.320312 41.769531 231.3125 C 49.761719 231.226562 52.9375 228.738281 55.046875 222.175781 C 57.742188 226.351562 62.671875 231.664062 70.3125 231.664062 L 70.453125 231.664062 C 77.996094 231.394531 82.296875 229.757812 85.007812 221.722656 C 87.859375 225.691406 93.199219 231.046875 101.632812 231.933594 L 101.898438 231.960938 L 102.160156 231.917969 C 105.804688 231.339844 111.808594 229.179688 115 221.460938 C 117.925781 225.664062 123.328125 231.664062 130.375 231.664062 C 131.949219 231.664062 133.269531 231.597656 134.410156 231.453125 L 134.753906 231.378906 C 139.101562 230.050781 142.53125 227.070312 144.667969 222.75 L 145.042969 223.636719 L 145.484375 221.777344 C 148.453125 225.960938 153.761719 231.664062 160.632812 231.664062 C 168.820312 231.664062 172.671875 229.414062 175.136719 222.195312 C 177.722656 226.300781 182.421875 231.457031 189.703125 231.457031 L 189.863281 231.457031 C 198.421875 231.457031 201.542969 228.875 203.695312 221.574219 C 206.761719 225.753906 212.25 231.664062 218.761719 231.664062 L 218.878906 231.664062 C 226.152344 231.503906 230.546875 229.894531 233.3125 222.105469 C 235.871094 226.171875 240.457031 231.3125 247.320312 231.3125 L 247.417969 231.3125 C 255.410156 231.226562 258.589844 228.738281 260.699219 222.175781 C 263.390625 226.351562 268.320312 231.664062 275.964844 231.664062 L 276.109375 231.664062 C 283.648438 231.394531 287.949219 229.757812 290.65625 221.722656 C 293.511719 225.691406 298.851562 231.046875 307.28125 231.933594 L 307.550781 231.960938 L 307.816406 231.917969 C 311.449219 231.339844 317.460938 229.179688 320.648438 221.460938 C 323.574219 225.664062 328.976562 231.664062 336.027344 231.664062 C 336.523438 231.664062 337 231.65625 337.464844 231.640625 L 337.464844 227.582031 C 337.007812 227.59375 336.53125 227.597656 336.027344 227.597656 "/>
</g>
<g clip-path="url(#clip2)" clip-rule="nonzero">
<path style=" stroke:none;fill-rule:nonzero;fill:rgb(36.859131%,9.01947%,92.158508%);fill-opacity:1;" d="M 154.777344 220.226562 C 157.1875 217.707031 159.53125 214.789062 162.125 211.550781 C 166.136719 206.539062 170.683594 200.855469 177.003906 194.847656 C 188.136719 184.269531 196.863281 182.566406 206.96875 180.589844 C 213.203125 179.375 219.648438 178.117188 227.203125 174.671875 C 234.097656 171.523438 237.886719 165.777344 241.550781 160.21875 C 243.601562 157.105469 245.609375 154.082031 248.09375 151.667969 C 248.875 157.65625 251.800781 167.0625 262.347656 170.058594 C 278.222656 174.5625 272.355469 189.46875 246.472656 200.554688 C 242.074219 202.441406 238.257812 204.414062 235.050781 206.382812 C 235.222656 206.628906 235.378906 206.894531 235.488281 207.183594 C 237.359375 212.207031 239.484375 221.242188 246.058594 222.457031 C 251.109375 223.390625 253.042969 221.46875 254.160156 216.746094 C 254.917969 213.566406 255.570312 210.363281 256.246094 207.164062 C 257.011719 203.585938 261.722656 204.257812 262.800781 207.164062 C 264.765625 212.46875 266.71875 220.824219 273.511719 222.574219 C 277.875 223.695312 282.183594 222.8125 283.597656 218.152344 C 284.632812 214.757812 285.273438 211.25 286.011719 207.78125 C 286.59375 205.0625 291.046875 204.238281 292.222656 206.964844 C 294.398438 212 296.351562 217.496094 301.214844 220.636719 C 304.839844 222.976562 308.691406 223.859375 311.492188 221.023438 C 309.359375 216.902344 307.578125 214.191406 306.1875 212.949219 C 304.445312 211.394531 302.382812 210.136719 300.195312 208.8125 C 294.125 205.117188 287.242188 200.933594 283.984375 188.324219 C 283.261719 185.511719 282.585938 182.480469 281.863281 179.269531 C 278.105469 162.472656 273.851562 143.433594 259.789062 143.433594 C 259.183594 143.433594 258.558594 143.472656 257.933594 143.546875 C 247.929688 144.726562 243.324219 151.699219 238.882812 158.445312 C 235.464844 163.625 231.9375 168.980469 225.878906 171.742188 C 218.667969 175.03125 212.410156 176.253906 206.355469 177.4375 C 196.203125 179.421875 186.613281 181.292969 174.808594 192.511719 C 168.324219 198.671875 163.703125 204.445312 159.628906 209.535156 C 157.144531 212.636719 154.90625 215.425781 152.632812 217.816406 C 153.292969 218.679688 154.003906 219.503906 154.777344 220.226562 "/>
</g>
<path style=" stroke:none;fill-rule:nonzero;fill:rgb(36.859131%,9.01947%,92.158508%);fill-opacity:1;" d="M 86.574219 206.964844 C 86.664062 207.175781 86.753906 207.386719 86.84375 207.597656 C 102.414062 201.820312 119.601562 190.414062 132.585938 181.796875 C 139.6875 177.082031 145.816406 173.015625 149.570312 171.28125 C 152.746094 169.816406 156.066406 167.882812 159.269531 166.007812 C 161.53125 164.683594 163.828125 163.351562 166.085938 162.167969 C 172.402344 167.824219 182.636719 175.425781 173.152344 182.679688 C 158.734375 193.714844 168.023438 187.804688 144.683594 204.796875 C 145.726562 205.144531 146.660156 205.921875 147.0625 207.035156 C 148.085938 209.890625 148.3125 210.8125 149.710938 213.277344 C 149.851562 213.527344 150 213.789062 150.15625 214.050781 C 151.007812 212.984375 151.875 211.882812 152.777344 210.738281 C 157.011719 205.339844 161.820312 199.21875 168.546875 192.828125 C 181.03125 180.964844 191.066406 178.707031 202.6875 176.097656 C 204.886719 175.601562 207.160156 175.09375 209.480469 174.503906 L 212.554688 173.726562 L 210.101562 171.703125 C 204.453125 167.046875 195.550781 162.367188 189.054688 158.945312 C 187.375 158.0625 185.875 157.273438 184.648438 156.601562 C 182.730469 155.546875 180.582031 155.007812 178.261719 155.007812 C 171.738281 155.007812 164.582031 159.1875 157.660156 163.230469 C 154.519531 165.0625 151.269531 166.960938 148.234375 168.363281 C 144.253906 170.195312 138.324219 174.132812 130.820312 179.117188 C 117.382812 188.03125 99.398438 199.953125 83.683594 205.292969 C 84.875 205.246094 86.050781 205.753906 86.574219 206.964844 "/>
<path style=" stroke:none;fill-rule:nonzero;fill:rgb(36.859131%,9.01947%,92.158508%);fill-opacity:1;" d="M 60.839844 216.464844 C 66.089844 214.164062 72.453125 211.820312 79.941406 209.800781 C 80.082031 209.128906 80.222656 208.453125 80.363281 207.78125 C 80.53125 206.996094 81.03125 206.371094 81.671875 205.945312 C 80.9375 206.167969 80.207031 206.398438 79.484375 206.589844 C 71.792969 208.648438 65.085938 211.113281 59.476562 213.574219 C 59.878906 214.558594 60.332031 215.535156 60.839844 216.464844 "/>
<path style=" stroke:none;fill-rule:nonzero;fill:rgb(36.859131%,9.01947%,92.158508%);fill-opacity:1;" d="M 138.710938 215.390625 C 139.261719 212.96875 139.769531 210.535156 140.285156 208.105469 C 134.121094 212.90625 129.417969 217.4375 126.566406 221.597656 C 132.140625 224.839844 137.332031 221.542969 138.710938 215.390625 "/>
</g>
</svg>
