<?xml version="1.0" encoding="UTF-8"?>
<svg xmlns="http://www.w3.org/2000/svg" xmlns:xlink="http://www.w3.org/1999/xlink" width="375pt" height="374.999991pt" viewBox="0 0 375 374.999991" version="1.2">
<g id="surface1">
<path style=" stroke:none;fill-rule:nonzero;fill:rgb(36.859131%,9.01947%,92.158508%);fill-opacity:1;" d="M 187.351562 374.699219 C 137.332031 374.699219 90.230469 355.230469 54.886719 319.8125 C 19.46875 284.46875 0 237.371094 0 187.351562 C 0 137.332031 19.46875 90.230469 54.886719 54.886719 C 90.230469 19.46875 137.332031 0 187.351562 0 C 237.371094 0 284.46875 19.46875 319.8125 54.886719 C 355.230469 90.304688 374.699219 137.332031 374.699219 187.351562 C 374.699219 237.371094 355.230469 284.46875 319.8125 319.8125 C 284.46875 355.230469 237.371094 374.699219 187.351562 374.699219 Z M 187.351562 11.230469 C 140.324219 11.230469 96.070312 29.578125 62.824219 62.824219 C 29.578125 96.070312 11.230469 140.324219 11.230469 187.351562 C 11.230469 234.375 29.578125 278.628906 62.824219 311.875 C 96.070312 345.121094 140.324219 363.46875 187.351562 363.46875 C 234.375 363.46875 278.628906 345.121094 311.875 311.875 C 345.121094 278.628906 363.46875 234.375 363.46875 187.351562 C 363.46875 140.324219 345.121094 96.070312 311.875 62.824219 C 278.628906 29.578125 234.375 11.230469 187.351562 11.230469 Z M 187.351562 11.230469 "/>
<path style=" stroke:none;fill-rule:nonzero;fill:rgb(36.859131%,9.01947%,92.158508%);fill-opacity:1;" d="M 112.574219 167.753906 C 120.070312 128.035156 159.871094 102.066406 201.300781 109.871094 C 242.738281 117.660156 270.339844 156.304688 262.84375 196.023438 C 259.316406 214.707031 248.53125 231.027344 232.480469 241.957031 C 231.664062 242.523438 231.164062 243.425781 231.136719 244.394531 L 230.5 268.710938 L 210.488281 253.597656 C 209.691406 252.984375 208.632812 252.773438 207.652344 253.011719 C 196.675781 255.71875 185.382812 256.015625 174.117188 253.894531 C 132.679688 246.105469 105.074219 207.449219 112.574219 167.753906 Z M 102.328125 165.660156 C 93.8125 210.800781 125.195312 254.730469 172.28125 263.585938 C 182.894531 265.582031 193.496094 265.699219 203.925781 263.933594 C 207.078125 263.40625 210.34375 264.171875 212.890625 266.09375 L 233.710938 281.828125 C 234.152344 282.15625 234.664062 282.375 235.191406 282.472656 C 235.882812 282.605469 236.605469 282.53125 237.265625 282.242188 C 238.429688 281.722656 239.179688 280.621094 239.207031 279.382812 L 239.871094 254.058594 C 239.957031 250.976562 241.429688 248.109375 243.871094 246.152344 C 259.613281 233.582031 270.0625 216.066406 273.40625 196.320312 C 281.210938 150.355469 248.582031 107 200.539062 99.410156 C 154.414062 92.117188 110.6875 121.375 102.328125 165.660156 "/>
<path style=" stroke:none;fill-rule:nonzero;fill:rgb(36.859131%,9.01947%,92.158508%);fill-opacity:1;" d="M 199.789062 124.945312 C 208.171875 124.945312 212.363281 130.421875 212.363281 136.691406 C 212.363281 144.511719 205.085938 151.753906 195.601562 151.753906 C 187.660156 151.753906 183.027344 147.253906 183.238281 139.816406 C 183.238281 133.550781 188.757812 124.945312 199.789062 124.945312 "/>
<path style=" stroke:none;fill-rule:nonzero;fill:rgb(36.859131%,9.01947%,92.158508%);fill-opacity:1;" d="M 173.984375 240.480469 C 167.359375 240.480469 162.507812 236.566406 167.148438 219.351562 L 174.742188 188.804688 C 176.058594 183.910156 176.28125 181.953125 174.742188 181.953125 C 172.753906 181.953125 164.160156 185.332031 159.085938 188.660156 L 155.777344 183.382812 C 171.878906 170.265625 190.398438 162.578125 198.339844 162.578125 C 204.953125 162.578125 206.066406 170.207031 202.75 181.953125 L 194.0625 214.0625 C 192.503906 219.734375 193.179688 221.691406 194.714844 221.691406 C 196.707031 221.691406 203.210938 219.339844 209.605469 214.445312 L 213.363281 219.339844 C 197.695312 234.597656 180.597656 240.480469 173.984375 240.480469 "/>
</g>
</svg>
