<?xml version="1.0" encoding="UTF-8"?>
<svg xmlns="http://www.w3.org/2000/svg" xmlns:xlink="http://www.w3.org/1999/xlink" width="375pt" height="374.999991pt" viewBox="0 0 375 374.999991" version="1.2">
<defs>
<clipPath id="clip1">
  <path d="M 87.070312 94.226562 L 288.070312 94.226562 L 288.070312 280.976562 L 87.070312 280.976562 Z M 87.070312 94.226562 "/>
</clipPath>
</defs>
<g id="surface1">
<path style=" stroke:none;fill-rule:nonzero;fill:rgb(36.859131%,9.01947%,92.158508%);fill-opacity:1;" d="M 187.351562 374.699219 C 137.332031 374.699219 90.230469 355.230469 54.886719 319.8125 C 19.46875 284.46875 0 237.371094 0 187.351562 C 0 137.332031 19.46875 90.230469 54.886719 54.886719 C 90.230469 19.46875 137.332031 0 187.351562 0 C 237.371094 0 284.46875 19.46875 319.8125 54.886719 C 355.230469 90.304688 374.699219 137.332031 374.699219 187.351562 C 374.699219 237.371094 355.230469 284.46875 319.8125 319.8125 C 284.46875 355.230469 237.371094 374.699219 187.351562 374.699219 Z M 187.351562 11.230469 C 140.324219 11.230469 96.070312 29.578125 62.824219 62.824219 C 29.578125 96.070312 11.230469 140.324219 11.230469 187.351562 C 11.230469 234.375 29.578125 278.628906 62.824219 311.875 C 96.070312 345.121094 140.324219 363.46875 187.351562 363.46875 C 234.375 363.46875 278.628906 345.121094 311.875 311.875 C 345.121094 278.628906 363.46875 234.375 363.46875 187.351562 C 363.46875 140.324219 345.121094 96.070312 311.875 62.824219 C 278.628906 29.578125 234.375 11.230469 187.351562 11.230469 Z M 187.351562 11.230469 "/>
<path style=" stroke:none;fill-rule:nonzero;fill:rgb(36.859131%,9.01947%,92.158508%);fill-opacity:1;" d="M 167.878906 229.121094 C 166.9375 229.433594 165.835938 229.746094 164.894531 230.0625 C 164.425781 230.21875 164.269531 230.691406 164.425781 231.003906 C 164.582031 231.316406 164.894531 231.632812 165.210938 231.632812 C 165.210938 231.632812 165.367188 231.632812 165.367188 231.632812 C 166.308594 231.316406 167.40625 231.003906 168.347656 230.691406 C 168.820312 230.53125 168.976562 230.0625 168.820312 229.746094 C 168.820312 229.121094 168.347656 228.964844 167.878906 229.121094 Z M 167.878906 229.121094 "/>
<path style=" stroke:none;fill-rule:nonzero;fill:rgb(36.859131%,9.01947%,92.158508%);fill-opacity:1;" d="M 168.820312 166.644531 C 169.289062 166.644531 169.601562 166.328125 169.601562 165.859375 L 169.601562 165.074219 C 169.601562 164.289062 169.601562 163.503906 169.601562 162.71875 C 169.601562 162.25 169.289062 161.933594 168.820312 161.933594 C 168.347656 161.933594 168.035156 162.25 168.035156 162.71875 C 168.035156 163.503906 168.035156 164.289062 168.035156 165.230469 L 168.035156 166.015625 C 168.035156 166.171875 168.347656 166.644531 168.820312 166.644531 Z M 168.820312 166.644531 "/>
<path style=" stroke:none;fill-rule:nonzero;fill:rgb(36.859131%,9.01947%,92.158508%);fill-opacity:1;" d="M 208.671875 147.492188 C 208.832031 147.804688 209.144531 147.804688 209.300781 147.804688 C 209.457031 147.804688 209.613281 147.804688 209.773438 147.648438 C 210.085938 147.492188 210.242188 147.019531 210.085938 146.550781 C 209.613281 145.609375 208.988281 144.667969 208.359375 143.882812 C 208.046875 143.566406 207.574219 143.410156 207.261719 143.726562 C 206.949219 144.039062 206.789062 144.511719 207.105469 144.824219 C 207.574219 145.765625 208.203125 146.707031 208.671875 147.492188 Z M 208.671875 147.492188 "/>
<path style=" stroke:none;fill-rule:nonzero;fill:rgb(36.859131%,9.01947%,92.158508%);fill-opacity:1;" d="M 211.96875 156.125 C 211.96875 156.441406 212.4375 156.753906 212.753906 156.753906 C 212.753906 156.753906 212.910156 156.753906 212.910156 156.753906 C 213.378906 156.597656 213.539062 156.28125 213.539062 155.8125 C 213.378906 154.714844 213.066406 153.769531 212.753906 152.671875 C 212.597656 152.203125 212.125 152.042969 211.8125 152.203125 C 211.339844 152.359375 211.183594 152.828125 211.339844 153.144531 C 211.496094 154.085938 211.8125 155.027344 211.96875 156.125 Z M 211.96875 156.125 "/>
<path style=" stroke:none;fill-rule:nonzero;fill:rgb(36.859131%,9.01947%,92.158508%);fill-opacity:1;" d="M 212.597656 162.25 L 212.597656 162.875 C 212.597656 163.660156 212.597656 164.601562 212.4375 165.386719 C 212.4375 165.859375 212.753906 166.171875 213.222656 166.171875 C 213.695312 166.171875 214.007812 165.859375 214.007812 165.386719 C 214.007812 164.445312 214.164062 163.660156 214.164062 162.71875 L 214.164062 162.089844 C 214.164062 161.621094 213.851562 161.304688 213.378906 161.304688 C 212.910156 161.464844 212.597656 161.777344 212.597656 162.25 Z M 212.597656 162.25 "/>
<path style=" stroke:none;fill-rule:nonzero;fill:rgb(36.859131%,9.01947%,92.158508%);fill-opacity:1;" d="M 170.230469 171.980469 C 170.074219 171.507812 169.761719 171.351562 169.289062 171.351562 C 168.820312 171.507812 168.660156 171.824219 168.660156 172.292969 C 168.820312 173.394531 169.132812 174.492188 169.445312 175.433594 C 169.601562 175.75 169.917969 176.0625 170.230469 176.0625 C 170.230469 176.0625 170.386719 176.0625 170.386719 176.0625 C 170.859375 175.90625 171.015625 175.433594 170.859375 175.121094 C 170.703125 173.863281 170.386719 172.921875 170.230469 171.980469 Z M 170.230469 171.980469 "/>
<path style=" stroke:none;fill-rule:nonzero;fill:rgb(36.859131%,9.01947%,92.158508%);fill-opacity:1;" d="M 203.023438 140.113281 C 203.179688 140.273438 203.339844 140.429688 203.652344 140.429688 C 203.808594 140.429688 204.121094 140.429688 204.121094 140.273438 C 204.4375 139.957031 204.4375 139.488281 204.121094 139.171875 C 203.339844 138.386719 202.554688 137.601562 201.769531 136.976562 C 201.457031 136.660156 200.984375 136.660156 200.671875 137.132812 C 200.355469 137.445312 200.355469 137.917969 200.828125 138.230469 C 201.613281 138.703125 202.238281 139.328125 203.023438 140.113281 Z M 203.023438 140.113281 "/>
<path style=" stroke:none;fill-rule:nonzero;fill:rgb(36.859131%,9.01947%,92.158508%);fill-opacity:1;" d="M 169.445312 157.066406 C 169.917969 157.066406 170.230469 156.753906 170.386719 156.441406 C 170.542969 155.339844 170.703125 154.398438 171.015625 153.457031 C 171.171875 152.988281 170.859375 152.671875 170.386719 152.515625 C 169.917969 152.359375 169.601562 152.671875 169.445312 153.144531 C 169.132812 154.242188 168.976562 155.183594 168.820312 156.28125 C 168.660156 156.597656 168.976562 157.066406 169.445312 157.066406 Z M 169.445312 157.066406 "/>
<path style=" stroke:none;fill-rule:nonzero;fill:rgb(36.859131%,9.01947%,92.158508%);fill-opacity:1;" d="M 176.664062 139.800781 C 176.820312 139.800781 177.132812 139.644531 177.292969 139.488281 C 177.917969 138.703125 178.546875 137.917969 179.332031 137.132812 C 179.644531 136.816406 179.644531 136.347656 179.332031 136.03125 C 179.019531 135.71875 178.546875 135.71875 178.234375 136.03125 C 177.449219 136.816406 176.820312 137.601562 176.035156 138.542969 C 175.722656 138.859375 175.878906 139.328125 176.191406 139.644531 C 176.351562 139.644531 176.507812 139.800781 176.664062 139.800781 Z M 176.664062 139.800781 "/>
<path style=" stroke:none;fill-rule:nonzero;fill:rgb(36.859131%,9.01947%,92.158508%);fill-opacity:1;" d="M 183.882812 133.679688 C 184.039062 133.679688 184.039062 133.679688 184.195312 133.679688 C 185.136719 133.363281 186.078125 133.050781 187.019531 132.894531 C 187.492188 132.894531 187.804688 132.421875 187.648438 131.953125 C 187.648438 131.480469 187.175781 131.167969 186.707031 131.324219 C 185.609375 131.480469 184.507812 131.792969 183.410156 132.265625 C 182.941406 132.421875 182.785156 132.894531 182.941406 133.363281 C 183.253906 133.523438 183.566406 133.679688 183.882812 133.679688 Z M 183.882812 133.679688 "/>
<path style=" stroke:none;fill-rule:nonzero;fill:rgb(36.859131%,9.01947%,92.158508%);fill-opacity:1;" d="M 211.496094 175.433594 C 211.496094 175.433594 211.65625 175.433594 211.65625 175.433594 C 211.96875 175.433594 212.28125 175.277344 212.4375 174.804688 C 212.753906 173.707031 212.910156 172.765625 213.222656 171.667969 C 213.378906 171.195312 213.066406 170.882812 212.597656 170.726562 C 212.125 170.566406 211.8125 170.882812 211.65625 171.351562 C 211.496094 172.292969 211.183594 173.394531 210.871094 174.335938 C 210.871094 174.964844 211.183594 175.433594 211.496094 175.433594 Z M 211.496094 175.433594 "/>
<path style=" stroke:none;fill-rule:nonzero;fill:rgb(36.859131%,9.01947%,92.158508%);fill-opacity:1;" d="M 172.742188 147.492188 C 173.054688 146.550781 173.527344 145.609375 173.996094 144.667969 C 174.152344 144.351562 173.996094 143.882812 173.683594 143.566406 C 173.367188 143.410156 172.898438 143.566406 172.585938 143.882812 C 172.113281 144.824219 171.644531 145.765625 171.328125 146.863281 C 171.171875 147.335938 171.328125 147.648438 171.800781 147.804688 C 171.957031 147.804688 171.957031 147.804688 172.113281 147.804688 C 172.425781 147.964844 172.585938 147.804688 172.742188 147.492188 Z M 172.742188 147.492188 "/>
<path style=" stroke:none;fill-rule:nonzero;fill:rgb(36.859131%,9.01947%,92.158508%);fill-opacity:1;" d="M 206.632812 188.777344 C 206.164062 188.621094 205.847656 188.777344 205.535156 189.089844 C 205.0625 190.03125 204.59375 190.976562 204.28125 191.917969 C 204.121094 192.230469 204.28125 192.703125 204.59375 193.015625 C 204.75 193.015625 204.75 193.015625 204.90625 193.015625 C 205.222656 193.015625 205.535156 192.859375 205.691406 192.542969 C 206.164062 191.601562 206.632812 190.660156 207.105469 189.71875 C 207.261719 189.40625 207.105469 189.089844 206.632812 188.777344 Z M 206.632812 188.777344 "/>
<path style=" stroke:none;fill-rule:nonzero;fill:rgb(36.859131%,9.01947%,92.158508%);fill-opacity:1;" d="M 205.847656 203.21875 C 204.75 202.90625 203.808594 202.746094 202.867188 202.433594 C 202.398438 202.277344 202.082031 202.589844 201.925781 202.90625 C 201.769531 203.375 202.082031 203.691406 202.398438 203.847656 C 203.339844 204.160156 204.4375 204.476562 205.535156 204.789062 C 205.535156 204.789062 205.691406 204.789062 205.691406 204.789062 C 206.007812 204.789062 206.320312 204.476562 206.476562 204.160156 C 206.476562 203.691406 206.164062 203.21875 205.847656 203.21875 Z M 205.847656 203.21875 "/>
<path style=" stroke:none;fill-rule:nonzero;fill:rgb(36.859131%,9.01947%,92.158508%);fill-opacity:1;" d="M 196.589844 205.730469 C 195.964844 206.515625 195.335938 207.457031 194.707031 208.242188 C 194.394531 208.554688 194.550781 209.027344 194.867188 209.339844 C 195.023438 209.496094 195.179688 209.496094 195.335938 209.496094 C 195.492188 209.496094 195.808594 209.339844 195.964844 209.183594 C 196.589844 208.398438 197.21875 207.457031 197.847656 206.671875 C 198.160156 206.359375 198.003906 205.886719 197.691406 205.574219 C 197.21875 205.257812 196.75 205.417969 196.589844 205.730469 Z M 196.589844 205.730469 "/>
<path style=" stroke:none;fill-rule:nonzero;fill:rgb(36.859131%,9.01947%,92.158508%);fill-opacity:1;" d="M 202.554688 197.410156 C 202.238281 197.253906 201.769531 197.410156 201.457031 197.726562 C 200.984375 198.667969 200.515625 199.609375 199.886719 200.394531 C 199.730469 200.707031 199.730469 201.179688 200.199219 201.492188 C 200.355469 201.492188 200.515625 201.648438 200.671875 201.648438 C 200.984375 201.648438 201.140625 201.492188 201.296875 201.335938 C 201.769531 200.394531 202.398438 199.453125 202.867188 198.507812 C 203.023438 198.039062 202.867188 197.566406 202.554688 197.410156 Z M 202.554688 197.410156 "/>
<path style=" stroke:none;fill-rule:nonzero;fill:rgb(36.859131%,9.01947%,92.158508%);fill-opacity:1;" d="M 211.96875 204.003906 C 211.65625 204.003906 211.183594 204.316406 211.183594 204.789062 C 211.183594 205.257812 211.496094 205.574219 211.96875 205.574219 C 213.066406 205.730469 214.164062 205.730469 215.105469 205.730469 C 215.578125 205.730469 215.890625 205.417969 215.890625 204.945312 C 215.890625 204.476562 215.578125 204.160156 215.105469 204.160156 C 214.007812 204.160156 212.910156 204.160156 211.96875 204.003906 Z M 211.96875 204.003906 "/>
<path style=" stroke:none;fill-rule:nonzero;fill:rgb(36.859131%,9.01947%,92.158508%);fill-opacity:1;" d="M 210.085938 179.988281 C 209.613281 179.828125 209.300781 179.988281 209.144531 180.457031 C 208.832031 181.398438 208.359375 182.5 208.046875 183.441406 C 207.890625 183.910156 208.046875 184.226562 208.515625 184.382812 C 208.671875 184.382812 208.671875 184.382812 208.832031 184.382812 C 209.144531 184.382812 209.457031 184.226562 209.613281 183.910156 C 209.929688 182.96875 210.398438 181.871094 210.714844 180.929688 C 210.714844 180.613281 210.554688 180.144531 210.085938 179.988281 Z M 210.085938 179.988281 "/>
<path style=" stroke:none;fill-rule:nonzero;fill:rgb(36.859131%,9.01947%,92.158508%);fill-opacity:1;" d="M 196.75 201.492188 C 197.0625 201.492188 197.375 201.335938 197.53125 201.019531 C 197.691406 200.550781 197.53125 200.238281 197.0625 199.921875 C 196.121094 199.453125 195.179688 198.980469 194.238281 198.507812 C 193.925781 198.351562 193.453125 198.507812 193.140625 198.824219 C 192.984375 199.136719 193.140625 199.609375 193.453125 199.921875 C 194.394531 200.394531 195.335938 200.863281 196.277344 201.335938 C 196.433594 201.492188 196.589844 201.492188 196.75 201.492188 Z M 196.75 201.492188 "/>
<path style=" stroke:none;fill-rule:nonzero;fill:rgb(36.859131%,9.01947%,92.158508%);fill-opacity:1;" d="M 176.351562 225.039062 C 175.410156 225.507812 174.625 226.136719 173.683594 226.609375 C 173.367188 226.765625 173.210938 227.234375 173.367188 227.707031 C 173.527344 228.019531 173.839844 228.179688 173.996094 228.179688 C 174.152344 228.179688 174.308594 228.179688 174.308594 228.019531 C 175.25 227.550781 176.191406 226.921875 177.132812 226.453125 C 177.449219 226.292969 177.605469 225.824219 177.449219 225.351562 C 177.132812 224.882812 176.664062 224.726562 176.351562 225.039062 Z M 176.351562 225.039062 "/>
<path style=" stroke:none;fill-rule:nonzero;fill:rgb(36.859131%,9.01947%,92.158508%);fill-opacity:1;" d="M 181.214844 190.03125 C 180.429688 189.40625 179.644531 188.621094 179.019531 187.835938 C 178.703125 187.519531 178.234375 187.519531 177.917969 187.835938 C 177.605469 188.148438 177.605469 188.621094 177.917969 188.933594 C 178.703125 189.71875 179.488281 190.347656 180.273438 191.132812 C 180.429688 191.289062 180.585938 191.289062 180.742188 191.289062 C 180.902344 191.289062 181.214844 191.132812 181.371094 190.976562 C 181.527344 190.816406 181.527344 190.347656 181.214844 190.03125 Z M 181.214844 190.03125 "/>
<path style=" stroke:none;fill-rule:nonzero;fill:rgb(36.859131%,9.01947%,92.158508%);fill-opacity:1;" d="M 174.308594 184.382812 C 174.46875 184.382812 174.625 184.382812 174.78125 184.226562 C 175.09375 183.910156 175.25 183.441406 174.9375 183.125 C 174.308594 182.339844 173.839844 181.398438 173.367188 180.457031 C 173.210938 180.144531 172.742188 179.988281 172.269531 180.144531 C 171.957031 180.300781 171.800781 180.769531 171.957031 181.242188 C 172.425781 182.183594 173.054688 183.125 173.683594 183.910156 C 173.839844 184.226562 174.152344 184.382812 174.308594 184.382812 Z M 174.308594 184.382812 "/>
<path style=" stroke:none;fill-rule:nonzero;fill:rgb(36.859131%,9.01947%,92.158508%);fill-opacity:1;" d="M 196.121094 134.621094 C 196.433594 134.621094 196.75 134.464844 196.75 134.148438 C 196.90625 133.835938 196.75 133.363281 196.433594 133.050781 C 195.492188 132.578125 194.394531 132.109375 193.453125 131.792969 C 192.984375 131.636719 192.667969 131.953125 192.511719 132.265625 C 192.355469 132.738281 192.667969 133.050781 192.984375 133.207031 C 193.925781 133.523438 194.867188 133.835938 195.808594 134.304688 C 195.808594 134.621094 195.964844 134.621094 196.121094 134.621094 Z M 196.121094 134.621094 "/>
<path style=" stroke:none;fill-rule:nonzero;fill:rgb(36.859131%,9.01947%,92.158508%);fill-opacity:1;" d="M 183.882812 219.542969 C 183.097656 220.171875 182.3125 220.800781 181.371094 221.429688 C 181.058594 221.742188 180.902344 222.214844 181.214844 222.527344 C 181.371094 222.683594 181.527344 222.839844 181.84375 222.839844 C 182 222.839844 182.15625 222.839844 182.3125 222.683594 C 183.097656 222.054688 184.039062 221.429688 184.824219 220.644531 C 185.136719 220.328125 185.136719 219.859375 184.980469 219.542969 C 184.667969 219.230469 184.195312 219.230469 183.882812 219.542969 Z M 183.882812 219.542969 "/>
<path style=" stroke:none;fill-rule:nonzero;fill:rgb(36.859131%,9.01947%,92.158508%);fill-opacity:1;" d="M 190.628906 212.953125 C 190 213.738281 189.214844 214.519531 188.433594 215.148438 C 188.117188 215.464844 188.117188 215.933594 188.433594 216.246094 C 188.589844 216.40625 188.746094 216.40625 189.058594 216.40625 C 189.214844 216.40625 189.53125 216.40625 189.6875 216.246094 C 190.472656 215.464844 191.097656 214.679688 191.882812 213.894531 C 192.199219 213.578125 192.199219 213.109375 191.882812 212.792969 C 191.414062 212.636719 190.941406 212.636719 190.628906 212.953125 Z M 190.628906 212.953125 "/>
<path style=" stroke:none;fill-rule:nonzero;fill:rgb(36.859131%,9.01947%,92.158508%);fill-opacity:1;" d="M 189.058594 196.625 C 189.214844 196.3125 189.214844 195.839844 188.746094 195.527344 C 187.804688 195.054688 187.019531 194.429688 186.078125 193.800781 C 185.765625 193.488281 185.292969 193.644531 184.980469 193.957031 C 184.667969 194.269531 184.824219 194.742188 185.136719 195.054688 C 186.078125 195.683594 186.863281 196.3125 187.804688 196.78125 C 187.960938 196.941406 188.117188 196.941406 188.273438 196.941406 C 188.589844 197.097656 188.902344 196.941406 189.058594 196.625 Z M 189.058594 196.625 "/>
<path style=" stroke:none;fill-rule:nonzero;fill:rgb(36.859131%,9.01947%,92.158508%);fill-opacity:1;" d="M 127.867188 150.003906 C 127.867188 150.519531 127.816406 151.03125 127.714844 151.535156 C 127.613281 152.039062 127.464844 152.53125 127.269531 153.007812 C 127.070312 153.484375 126.828125 153.9375 126.542969 154.363281 C 126.257812 154.792969 125.933594 155.191406 125.566406 155.554688 C 125.203125 155.917969 124.808594 156.242188 124.378906 156.53125 C 123.949219 156.816406 123.5 157.058594 123.023438 157.253906 C 122.546875 157.453125 122.054688 157.601562 121.550781 157.703125 C 121.046875 157.800781 120.535156 157.851562 120.019531 157.851562 C 119.503906 157.851562 118.996094 157.800781 118.488281 157.703125 C 117.984375 157.601562 117.492188 157.453125 117.019531 157.253906 C 116.542969 157.058594 116.089844 156.816406 115.660156 156.53125 C 115.234375 156.242188 114.835938 155.917969 114.472656 155.554688 C 114.109375 155.191406 113.78125 154.792969 113.496094 154.363281 C 113.210938 153.9375 112.96875 153.484375 112.773438 153.007812 C 112.574219 152.53125 112.425781 152.039062 112.324219 151.535156 C 112.226562 151.03125 112.175781 150.519531 112.175781 150.003906 C 112.175781 149.488281 112.226562 148.976562 112.324219 148.472656 C 112.425781 147.96875 112.574219 147.476562 112.773438 147 C 112.96875 146.523438 113.210938 146.070312 113.496094 145.644531 C 113.78125 145.214844 114.109375 144.820312 114.472656 144.453125 C 114.835938 144.089844 115.234375 143.765625 115.660156 143.476562 C 116.089844 143.191406 116.542969 142.949219 117.019531 142.753906 C 117.492188 142.554688 117.984375 142.40625 118.488281 142.304688 C 118.996094 142.207031 119.503906 142.15625 120.019531 142.15625 C 120.535156 142.15625 121.046875 142.207031 121.550781 142.304688 C 122.054688 142.40625 122.546875 142.554688 123.023438 142.753906 C 123.5 142.949219 123.949219 143.191406 124.378906 143.476562 C 124.808594 143.765625 125.203125 144.089844 125.566406 144.453125 C 125.933594 144.820312 126.257812 145.214844 126.542969 145.644531 C 126.828125 146.070312 127.070312 146.523438 127.269531 147 C 127.464844 147.476562 127.613281 147.96875 127.714844 148.472656 C 127.816406 148.976562 127.867188 149.488281 127.867188 150.003906 Z M 127.867188 150.003906 "/>
<g clip-path="url(#clip1)" clip-rule="nonzero">
<path style=" stroke:none;fill-rule:nonzero;fill:rgb(36.859131%,9.01947%,92.158508%);fill-opacity:1;" d="M 271.75 130.851562 L 287.914062 130.851562 L 287.914062 96.632812 C 287.914062 95.375 287.128906 94.589844 286.1875 94.589844 C 285.871094 94.589844 285.558594 94.589844 285.085938 94.90625 L 222.480469 122.847656 C 221.695312 123.160156 220.753906 123.316406 219.65625 123.316406 C 218.558594 123.316406 217.460938 123.160156 216.675781 122.691406 L 158.621094 95.375 C 157.835938 95.0625 156.738281 94.75 155.636719 94.75 C 154.695312 94.75 153.597656 94.90625 152.8125 95.21875 L 89.738281 123.476562 C 88.324219 124.417969 87.070312 126.457031 87.070312 128.183594 L 87.070312 231.632812 L 101.191406 231.632812 C 101.660156 231.632812 101.976562 231.945312 101.976562 232.417969 C 101.976562 232.886719 101.660156 233.203125 101.191406 233.203125 L 87.070312 233.203125 L 87.070312 236.339844 L 101.191406 236.339844 C 101.660156 236.339844 101.976562 236.65625 101.976562 237.125 C 101.976562 237.597656 101.660156 237.910156 101.191406 237.910156 L 87.070312 237.910156 L 87.070312 278.722656 C 87.070312 279.980469 87.695312 280.609375 88.636719 280.609375 C 88.953125 280.609375 89.421875 280.453125 89.894531 280.292969 L 153.285156 243.5625 C 154.070312 243.089844 155.011719 242.933594 155.953125 242.933594 C 156.894531 242.933594 157.992188 243.089844 158.777344 243.5625 L 217.304688 279.039062 C 217.929688 279.507812 218.714844 279.667969 219.65625 279.667969 C 219.972656 279.980469 220.285156 280.136719 220.753906 280.136719 C 221.382812 280.136719 221.855469 279.824219 222.167969 279.195312 C 222.324219 279.195312 222.480469 279.039062 222.636719 279.039062 L 285.402344 242.777344 C 286.8125 241.835938 288.070312 239.792969 288.070312 238.066406 L 288.070312 137.132812 L 271.90625 137.132812 C 271.4375 137.132812 271.121094 136.816406 271.121094 136.347656 C 271.121094 135.875 271.4375 135.5625 271.90625 135.5625 L 287.914062 135.5625 L 287.914062 132.421875 L 271.75 132.421875 C 271.28125 132.421875 270.964844 132.109375 270.964844 131.636719 C 270.964844 131.324219 271.28125 130.851562 271.75 130.851562 Z M 106.683594 237.910156 C 106.210938 237.910156 105.898438 237.597656 105.898438 237.125 C 105.898438 236.65625 106.210938 236.339844 106.683594 236.339844 C 107.152344 236.339844 107.46875 236.65625 107.46875 237.125 C 107.46875 237.597656 107.152344 237.910156 106.683594 237.910156 Z M 106.683594 233.203125 C 106.210938 233.203125 105.898438 232.886719 105.898438 232.417969 C 105.898438 231.945312 106.210938 231.632812 106.683594 231.632812 C 107.152344 231.632812 107.46875 231.945312 107.46875 232.417969 C 107.46875 232.886719 107.152344 233.203125 106.683594 233.203125 Z M 119.390625 189.25 C 119.390625 188.777344 119.234375 188.148438 119.234375 187.679688 C 119.234375 187.207031 119.550781 186.894531 120.019531 186.894531 C 120.492188 186.894531 120.804688 187.207031 120.804688 187.679688 C 120.804688 188.148438 120.960938 188.777344 120.960938 189.25 C 120.960938 189.71875 120.648438 190.03125 120.332031 190.03125 C 119.863281 189.875 119.390625 189.5625 119.390625 189.25 Z M 121.433594 199.292969 C 120.960938 199.292969 120.648438 198.980469 120.648438 198.667969 L 120.175781 195.527344 L 120.960938 195.371094 L 121.746094 195.371094 L 122.214844 198.351562 C 122.214844 198.824219 122.058594 199.136719 121.433594 199.292969 C 121.589844 199.292969 121.433594 199.292969 121.433594 199.292969 Z M 123.785156 208.554688 C 123.785156 208.554688 123.628906 208.554688 123.472656 208.554688 C 123.15625 208.554688 122.84375 208.398438 122.6875 207.929688 C 122.375 206.988281 122.058594 205.886719 121.902344 204.789062 C 121.746094 204.316406 122.058594 204.003906 122.53125 203.847656 C 123 203.691406 123.316406 204.003906 123.472656 204.476562 C 123.785156 205.574219 123.941406 206.515625 124.257812 207.457031 C 124.414062 207.929688 124.097656 208.398438 123.785156 208.554688 Z M 127.550781 217.191406 C 127.394531 217.191406 127.238281 217.347656 127.238281 217.347656 C 126.925781 217.347656 126.765625 217.191406 126.609375 216.875 C 126.140625 215.933594 125.667969 214.992188 125.199219 214.050781 C 125.042969 213.578125 125.199219 213.265625 125.511719 212.953125 C 125.984375 212.792969 126.296875 212.953125 126.609375 213.421875 C 127.082031 214.363281 127.550781 215.304688 128.023438 216.246094 C 128.023438 216.5625 127.867188 217.03125 127.550781 217.191406 Z M 133.355469 224.726562 C 133.199219 224.882812 133.042969 224.882812 132.886719 224.882812 C 132.730469 224.882812 132.414062 224.882812 132.414062 224.726562 C 131.632812 223.941406 130.847656 223.15625 130.21875 222.371094 C 129.90625 222.054688 130.0625 221.585938 130.375 221.269531 C 130.691406 220.957031 131.160156 221.113281 131.472656 221.429688 C 132.101562 222.214844 132.886719 222.996094 133.515625 223.78125 C 133.671875 223.78125 133.671875 224.410156 133.355469 224.726562 Z M 120.804688 179.515625 C 120.648438 179.671875 120.332031 179.828125 120.019531 179.828125 C 119.863281 179.828125 119.550781 179.828125 119.234375 179.359375 C 112.960938 171.980469 106.054688 163.816406 105.425781 163.03125 C 102.601562 159.738281 101.191406 155.65625 101.191406 151.417969 C 101.191406 141.054688 109.664062 132.738281 120.019531 132.738281 C 130.375 132.738281 138.847656 141.054688 138.847656 151.417969 C 138.847656 155.65625 137.4375 159.738281 134.613281 163.03125 C 133.984375 163.976562 120.960938 179.359375 120.804688 179.515625 Z M 141.203125 229.90625 C 141.046875 230.21875 140.730469 230.375 140.417969 230.375 C 140.261719 230.375 140.261719 230.375 140.105469 230.375 C 139.164062 229.90625 138.222656 229.433594 137.28125 228.804688 C 136.964844 228.492188 136.808594 228.019531 136.964844 227.707031 C 137.121094 227.394531 137.75 227.234375 138.0625 227.394531 C 138.847656 227.863281 139.789062 228.492188 140.730469 228.804688 C 141.203125 228.964844 141.359375 229.433594 141.203125 229.90625 Z M 149.519531 232.886719 C 148.261719 232.730469 147.320312 232.574219 146.222656 232.257812 C 145.753906 232.101562 145.597656 231.789062 145.597656 231.316406 C 145.597656 230.847656 146.066406 230.691406 146.539062 230.691406 C 147.480469 230.847656 148.578125 231.160156 149.519531 231.160156 C 149.988281 231.160156 150.304688 231.632812 150.144531 232.101562 C 150.304688 232.574219 149.988281 232.886719 149.519531 232.886719 Z M 219.1875 133.523438 C 219.027344 133.679688 218.871094 133.992188 218.871094 134.304688 C 218.871094 134.621094 219.027344 134.777344 219.027344 135.089844 C 219.027344 139.171875 218.871094 143.253906 218.871094 143.726562 L 218.871094 276.527344 C 218.714844 276.527344 218.714844 276.527344 218.558594 276.371094 L 160.1875 241.050781 C 159.402344 240.578125 158.621094 240.265625 157.679688 240.109375 L 157.679688 233.042969 C 158.148438 233.042969 158.621094 233.042969 159.089844 232.886719 C 159.5625 232.886719 159.875 232.417969 159.71875 231.945312 C 159.71875 231.476562 159.246094 231.160156 158.777344 231.316406 C 158.304688 231.316406 157.992188 231.316406 157.519531 231.476562 L 157.519531 98.359375 L 215.261719 125.515625 C 216.519531 126.144531 219.03125 126.300781 219.03125 126.300781 C 219.34375 127.242188 219.1875 130.226562 219.1875 133.523438 Z M 266.257812 130.851562 C 266.730469 130.851562 267.042969 131.167969 267.042969 131.636719 C 267.042969 132.109375 266.730469 132.421875 266.257812 132.421875 C 265.789062 132.421875 265.472656 132.109375 265.472656 131.636719 C 265.472656 131.324219 265.789062 130.851562 266.257812 130.851562 Z M 266.257812 135.5625 C 266.730469 135.5625 267.042969 135.875 267.042969 136.347656 C 267.042969 136.816406 266.730469 137.132812 266.257812 137.132812 C 265.789062 137.132812 265.472656 136.816406 265.472656 136.347656 C 265.472656 136.03125 265.789062 135.5625 266.257812 135.5625 Z M 276.929688 203.53125 C 276.929688 208.871094 275.046875 214.207031 271.75 218.445312 C 270.808594 219.542969 254.804688 238.851562 254.804688 239.007812 C 254.492188 239.480469 254.019531 239.636719 253.550781 239.636719 C 253.078125 239.636719 252.609375 239.480469 252.292969 239.007812 L 252.136719 238.851562 C 247.273438 233.042969 236.132812 219.542969 235.191406 218.445312 C 231.894531 214.207031 230.011719 209.027344 230.011719 203.53125 C 230.011719 190.503906 240.527344 179.828125 253.550781 179.828125 C 266.574219 179.828125 276.929688 190.503906 276.929688 203.53125 Z M 276.929688 203.53125 "/>
</g>
<path style=" stroke:none;fill-rule:nonzero;fill:rgb(36.859131%,9.01947%,92.158508%);fill-opacity:1;" d="M 262.808594 201.804688 C 262.808594 202.425781 262.746094 203.035156 262.625 203.644531 C 262.503906 204.25 262.328125 204.839844 262.089844 205.410156 C 261.855469 205.980469 261.5625 206.523438 261.21875 207.039062 C 260.875 207.554688 260.488281 208.027344 260.050781 208.464844 C 259.613281 208.902344 259.136719 209.292969 258.621094 209.636719 C 258.109375 209.980469 257.566406 210.269531 256.996094 210.507812 C 256.425781 210.746094 255.835938 210.921875 255.230469 211.042969 C 254.621094 211.164062 254.011719 211.226562 253.390625 211.226562 C 252.773438 211.226562 252.160156 211.164062 251.554688 211.042969 C 250.949219 210.921875 250.359375 210.746094 249.789062 210.507812 C 249.21875 210.269531 248.675781 209.980469 248.160156 209.636719 C 247.648438 209.292969 247.171875 208.902344 246.734375 208.464844 C 246.296875 208.027344 245.90625 207.554688 245.5625 207.039062 C 245.222656 206.523438 244.929688 205.980469 244.695312 205.410156 C 244.457031 204.839844 244.277344 204.25 244.160156 203.644531 C 244.039062 203.035156 243.976562 202.425781 243.976562 201.804688 C 243.976562 201.1875 244.039062 200.574219 244.160156 199.96875 C 244.277344 199.363281 244.457031 198.773438 244.695312 198.203125 C 244.929688 197.628906 245.222656 197.085938 245.5625 196.574219 C 245.90625 196.058594 246.296875 195.582031 246.734375 195.144531 C 247.171875 194.707031 247.648438 194.320312 248.160156 193.976562 C 248.675781 193.632812 249.21875 193.339844 249.789062 193.105469 C 250.359375 192.867188 250.949219 192.6875 251.554688 192.570312 C 252.160156 192.449219 252.773438 192.386719 253.390625 192.386719 C 254.011719 192.386719 254.621094 192.449219 255.230469 192.570312 C 255.835938 192.6875 256.425781 192.867188 256.996094 193.105469 C 257.566406 193.339844 258.109375 193.632812 258.621094 193.976562 C 259.136719 194.320312 259.613281 194.707031 260.050781 195.144531 C 260.488281 195.582031 260.875 196.058594 261.21875 196.574219 C 261.5625 197.085938 261.855469 197.628906 262.089844 198.203125 C 262.328125 198.773438 262.503906 199.363281 262.625 199.96875 C 262.746094 200.574219 262.808594 201.1875 262.808594 201.804688 Z M 262.808594 201.804688 "/>
</g>
</svg>
